:SAMPLES-PER-SECOND 30
:FULLY-SPECIFIED
:DEGREES
285
root  -67.7744 39.3451 3.93056 177.296 -85.5396 174.063
RightUpLeg  -13.8315 -3.33299 -1.26757
RightLeg  15.1163 5.29731 1.0596
RightFoot  5.85278 -0.13375 1.13592
RightToes  -6.40286e-010 0 -3.6325e-017
Spine  2.97385 -1.08832 4.26521
Spine1  9.50899 -0.701221 -1.06052
HEad  -13.9629 3.90768 -1.96401
LeftShoulder1  -0.564903 4.9451 -33.0636
LeftArm  7.24329 -7.65746 -43.4797
LeftForeArm  19.2938 -26.2553 -4.55179
LeftHand  0.010485 7.02368 3.52345
RightShoulder  -0.7451 -5.6508 28.0598
RightArm  15.628 -12.4814 44.4783
RightForeArm  20.6414 10.6529 6.69661
RightHand  0.0998917 2.62824 1.22944
LeftUpLeg  9.97498 3.32136 -1.53663
LeftLeg  23.703 2.55936 1.55351
LeftFoot  -19.6749 0.164609 0.672135
LeftToes  1.32783e-010 1.73515e-011 1.59258e-011
286
root  -68.5827 39.2302 3.72094 154.024 -86.1715 -162.683
RightUpLeg  -13.8321 -3.55251 0.375062
RightLeg  18.1804 4.14472 1.12532
RightFoot  3.49406 0.023268 -0.00127001
RightToes  -6.40286e-010 0 -3.6325e-017
Spine  3.42841 -1.14962 6.13786
Spine1  9.25352 -0.760968 0.236519
HEad  -14.2635 2.67067 -1.78374
LeftShoulder1  -0.468412 4.68499 -33.4899
LeftArm  11.4102 -6.07237 -44.4661
LeftForeArm  18.4207 -21.436 -4.5397
LeftHand  -0.0166262 8.07469 1.00956
RightShoulder  -0.798747 -5.79988 28.1673
RightArm  15.8184 -11.3275 44.6969
RightForeArm  17.9768 12.0393 6.33094
RightHand  0.0864282 3.56843 0.86631
LeftUpLeg  6.93174 2.55869 0.759296
LeftLeg  32.2268 0.911884 0.932092
LeftFoot  -18.4987 -0.122561 -3.91602
LeftToes  1.32783e-010 1.73515e-011 1.59258e-011
287
root  -69.3203 39.1276 3.51108 124.307 -86.3778 -132.701
RightUpLeg  -13.7842 -4.69112 1.94347
RightLeg  20.3798 3.6823 1.25424
RightFoot  1.39265 0.12331 -1.00289
RightToes  -6.40286e-010 0 -3.6325e-017
Spine  4.01002 -1.42203 7.83612
Spine1  8.46277 -0.94418 1.54638
HEad  -14.8088 2.02056 -1.12588
LeftShoulder1  -0.42251 4.57884 -33.1661
LeftArm  8.20594 -4.13603 -45.5202
LeftForeArm  24.5469 -15.5382 -7.43859
LeftHand  -0.0214691 8.36116 0.750709
RightShoulder  -0.801622 -5.79581 28.3449
RightArm  16.4682 -10.1449 45.1947
RightForeArm  16.2088 13.4254 6.02536
RightHand  0.0730091 3.41581 0.717355
LeftUpLeg  1.94219 2.54746 3.62558
LeftLeg  42.3311 -1.23129 -0.831636
LeftFoot  -13.4448 -0.0557476 -8.33963
LeftToes  1.32783e-010 1.73515e-011 1.59258e-011
288
root  -69.9931 39.0358 3.34548 102.597 -85.7693 -110.82
RightUpLeg  -13.4792 -5.86293 3.08269
RightLeg  21.9776 3.69288 1.63989
RightFoot  -0.761109 0.0970389 -1.10426
RightToes  -6.40286e-010 0 -3.6325e-017
Spine  4.76394 -1.47748 10.1899
Spine1  7.77031 -0.711564 1.57374
HEad  -15.8374 0.833967 -0.510222
LeftShoulder1  -0.387759 4.48219 -33.4851
LeftArm  3.49205 -2.7879 -45.7257
LeftForeArm  34.3425 -9.98649 -9.9381
LeftHand  -0.101527 8.37302 -1.20418
RightShoulder  -0.754839 -5.69522 27.7952
RightArm  17.518 -8.63156 46.3826
RightForeArm  14.6778 15.0631 5.66248
RightHand  0.0628507 3.0368 0.653382
LeftUpLeg  -3.66209 2.73433 6.02301
LeftLeg  51.8093 -1.97349 -2.1668
LeftFoot  -5.032 0.565095 -10.4513
LeftToes  1.32783e-010 1.73515e-011 1.59258e-011
289
root  -70.6459 39.0221 3.18098 95.6524 -85.0739 -103.948
RightUpLeg  -12.6659 -5.94351 4.01325
RightLeg  22.8692 3.19398 1.56606
RightFoot  -2.28803 0.105434 -1.53261
RightToes  -6.40286e-010 0 -3.6325e-017
Spine  5.43329 -1.3004 12.4092
Spine1  7.75529 -0.0225742 0.465606
HEad  -17.6222 -0.325589 0.601893
LeftShoulder1  -0.384382 4.46894 -33.679
LeftArm  -0.0366534 -1.15664 -45.8371
LeftForeArm  43.1037 -6.45903 -10.4694
LeftHand  -0.255359 9.81796 -4.87781
RightShoulder  -0.821567 -5.85036 28.3991
RightArm  19.6156 -5.96427 46.7908
RightForeArm  11.7442 16.7645 5.42508
RightHand  -0.0153912 3.8315 -0.460474
LeftUpLeg  -8.49923 3.68235 7.65719
LeftLeg  58.9063 -1.17153 -1.57297
LeftFoot  3.87197 1.0373 -7.84758
LeftToes  1.32783e-010 1.73515e-011 1.59258e-011
290
root  -71.2726 39.0678 3.04681 100.407 -84.8966 -108.899
RightUpLeg  -11.6272 -6.03452 4.24807
RightLeg  23.3728 3.55838 1.74732
RightFoot  -3.41392 0.121023 -2.07196
RightToes  -6.40286e-010 0 -3.6325e-017
Spine  6.16979 -0.958057 12.9621
Spine1  7.89404 0.544573 0.373591
HEad  -19.4361 -0.468454 1.1757
LeftShoulder1  -0.360628 4.41011 -33.6473
LeftArm  -1.35235 2.55961 -46.0911
LeftForeArm  44.4223 -5.82558 -10.2422
LeftHand  -0.0644644 8.3814 -0.888077
RightShoulder  -0.762226 -5.69731 28.1084
RightArm  21.5152 -3.01032 47.8605
RightForeArm  10.1852 17.909 5.28519
RightHand  -0.0552422 4.28632 -0.944142
LeftUpLeg  -11.5525 5.31919 8.45786
LeftLeg  62.6408 -0.882558 -1.25643
LeftFoot  3.60089 0.676932 -5.29285
LeftToes  1.32783e-010 1.73515e-011 1.59258e-011
291
root  -71.9149 39.2717 2.93243 110.549 -85.6547 -118.925
RightUpLeg  -10.3651 -6.05791 3.35466
RightLeg  22.8271 4.1667 1.8427
RightFoot  -4.20806 0.104712 -2.13741
RightToes  -6.40286e-010 0 -3.6325e-017
Spine  6.3881 -0.449432 13.2287
Spine1  7.82416 1.44779 -1.32138
HEad  -20.9697 -0.630399 1.65987
LeftShoulder1  -0.35034 4.38077 -33.808
LeftArm  -1.57801 5.80845 -45.1783
LeftForeArm  42.8336 -5.52321 -10.2097
LeftHand  -0.0825831 8.53911 -1.22056
RightShoulder  -0.814568 -5.82432 28.49
RightArm  23.507 -0.415085 48.3529
RightForeArm  8.78218 19.3067 5.00868
RightHand  -0.0771862 4.4777 -1.1941
LeftUpLeg  -13.8666 6.8697 7.92276
LeftLeg  63.0771 -0.690473 -0.866456
LeftFoot  0.976312 0.48504 -4.56842
LeftToes  1.32783e-010 1.73515e-011 1.59258e-011
292
root  -72.54 39.4833 2.84063 119.367 -86.3621 -127.458
RightUpLeg  -9.14851 -6.2364 2.47465
RightLeg  21.9694 4.64533 1.85257
RightFoot  -4.78925 0.0987388 -2.28995
RightToes  -6.40286e-010 0 -3.6325e-017
Spine  6.34346 0.0138581 12.8368
Spine1  7.51499 1.96961 -1.91452
HEad  -21.1976 -1.53955 1.89654
LeftShoulder1  -0.29856 4.25347 -33.6503
LeftArm  -2.59898 9.46662 -44.7858
LeftForeArm  41.5509 -5.46254 -9.81892
LeftHand  -0.0548779 8.29877 -0.380936
RightShoulder  -0.803784 -5.82707 27.9831
RightArm  24.1848 1.10886 49.4088
RightForeArm  8.65326 20.5899 4.72108
RightHand  -0.0948118 4.51432 -1.4015
LeftUpLeg  -15.4953 7.91158 7.33365
LeftLeg  60.6498 -0.291818 0.00226802
LeftFoot  -1.38838 0.396614 -4.44312
LeftToes  1.32783e-010 1.73515e-011 1.59258e-011
293
root  -73.1565 39.7039 2.7643 122.757 -87.087 -130.331
RightUpLeg  -7.88176 -6.5816 1.74248
RightLeg  20.5393 4.88974 1.75483
RightFoot  -5.1347 0.0919942 -2.33664
RightToes  -6.40286e-010 0 -3.6325e-017
Spine  5.71609 0.319521 12.8814
Spine1  7.44599 2.32641 -2.86702
HEad  -21.2554 -1.95671 1.74973
LeftShoulder1  -0.191672 3.99228 -33.1367
LeftArm  -2.98593 12.8272 -44.5809
LeftForeArm  42.6242 -6.254 -9.53115
LeftHand  -0.0955942 8.98522 -1.35723
RightShoulder  -0.826667 -5.90636 27.8016
RightArm  24.2128 1.87229 49.8342
RightForeArm  7.59661 22.6227 4.57156
RightHand  -0.0720252 4.99152 -1.10411
LeftUpLeg  -16.4983 8.11343 6.83264
LeftLeg  55.5985 0.576731 1.36377
LeftFoot  -3.70974 0.301256 -4.23406
LeftToes  1.32783e-010 1.73515e-011 1.59258e-011
294
root  -73.7526 39.927 2.71915 136.086 -87.9867 -143.248
RightUpLeg  -6.57178 -7.2254 0.52064
RightLeg  19.1662 5.5217 1.8141
RightFoot  -5.44387 0.0832715 -2.33176
RightToes  -6.40286e-010 0 -3.6325e-017
Spine  5.45331 0.599626 12.3906
Spine1  6.8554 2.64488 -3.87033
HEad  -20.7937 -2.54494 1.65151
LeftShoulder1  -0.211736 4.04446 -33.0338
LeftArm  -1.85215 15.4926 -43.4546
LeftForeArm  42.8277 -7.50831 -9.58057
LeftHand  -0.183844 10.0133 -3.11751
RightShoulder  -0.803906 -5.82708 27.986
RightArm  23.7413 2.0342 49.5849
RightForeArm  7.64371 24.8274 4.9031
RightHand  -0.0920819 5.19884 -1.31397
LeftUpLeg  -16.2142 7.86245 5.87836
LeftLeg  47.9373 1.94617 2.72952
LeftFoot  -5.91783 0.245118 -4.38889
LeftToes  1.32783e-010 1.73515e-011 1.59258e-011
295
root  -74.3153 40.1242 2.67702 153.967 -88.5489 -160.142
RightUpLeg  -5.95722 -7.46037 -0.27334
RightLeg  17.7303 5.76196 1.73947
RightFoot  -5.60287 0.0795761 -2.34464
RightToes  -6.40286e-010 0 -3.6325e-017
Spine  4.60292 1.07499 11.7333
Spine1  6.5298 2.93444 -4.33976
HEad  -21.3289 -2.56502 1.04739
LeftShoulder1  -0.27062 4.19412 -33.0734
LeftArm  -1.15004 17.3225 -42.5693
LeftForeArm  42.343 -8.56105 -9.373
LeftHand  -0.266225 10.7569 -4.27625
RightShoulder  -0.765843 -5.7196 27.9351
RightArm  22.8182 1.7842 49.1612
RightForeArm  9.50823 27.2389 5.36135
RightHand  -0.0440476 4.91261 -0.799305
LeftUpLeg  -15.8532 7.35038 5.16812
LeftLeg  38.7251 2.54142 2.57864
LeftFoot  -6.03795 0.165607 -2.81898
LeftToes  1.32783e-010 1.73515e-011 1.59258e-011
296
root  -74.8493 40.2977 2.66844 167.675 -89.1016 -172.89
RightUpLeg  -5.17064 -7.62583 -0.730571
RightLeg  15.9924 5.56359 1.65754
RightFoot  -5.64567 0.0704449 -2.18321
RightToes  -6.40286e-010 0 -3.6325e-017
Spine  3.40294 1.38875 12.1073
Spine1  6.83014 3.26302 -5.54418
HEad  -21.7425 -2.73005 0.514506
LeftShoulder1  -0.232968 4.09722 -33.0913
LeftArm  -1.22481 18.4795 -41.9998
LeftForeArm  41.4585 -9.52417 -8.92737
LeftHand  -0.343898 10.8167 -5.84082
RightShoulder  -0.805567 -5.81858 28.1277
RightArm  22.7724 1.85814 48.6641
RightForeArm  9.3939 28.743 5.7182
RightHand  -0.105063 5.53326 -1.42403
LeftUpLeg  -14.8778 5.40069 4.79197
LeftLeg  28.4547 1.76323 1.38054
LeftFoot  -5.30206 0.194246 -3.03124
LeftToes  1.32783e-010 1.73515e-011 1.59258e-011
